Coordinates
version=1
nRows=38
nColumns=12
inDegrees=yes

Units are S.I. units (second, meters, Newtons, ...)
Angles are in degrees

endheader
time	SC_y	SC_z	SC_x	AC_y	AC_z	AC_x	GH_y	GH_z	GH_yy	EL_x	PS_y
       0.0              -11.63          3.237          1.986          49.76         -8.597          16.47          81.79          12.34          112.3           81.2          111.3
   0.03492              -11.64          3.236          1.987          49.76         -8.594          16.47          81.79          12.34          112.2           81.2          111.3
   0.06984              -11.64          3.236          1.988          49.76         -8.592          16.47          81.78          12.33          112.2           81.2          111.3
    0.1048              -11.65          3.235          1.988          49.76         -8.589          16.46          81.77          12.33          112.2          81.21          111.3
    0.1397              -11.66          3.235          1.989          49.76         -8.586          16.46          81.76          12.33          112.2          81.21          111.3
    0.1746              -11.66          3.234           1.99          49.76         -8.583          16.46          81.75          12.33          112.2          81.22          111.3
    0.2095              -11.67          3.233          1.991          49.76         -8.579          16.45          81.74          12.33          112.2          81.22          111.3
    0.2445              -11.68          3.232          1.992          49.76         -8.575          16.45          81.72          12.32          112.1          81.23          111.3
    0.2794              -11.68          3.232          1.993          49.76         -8.571          16.44          81.71          12.32          112.1          81.24          111.3
    0.3143              -11.69          3.231          1.994          49.75         -8.567          16.44           81.7          12.32          112.1          81.24          111.3
    0.3492               -11.7           3.23          1.995          49.75         -8.563          16.43          81.68          12.31          112.1          81.25          111.3
    0.3841              -11.71          3.229          1.997          49.75         -8.558          16.43          81.66          12.31          112.1          81.26          111.3
    0.4191              -11.72          3.228          1.998          49.75         -8.552          16.42          81.65          12.31          112.0          81.26          111.4
     0.454              -11.73          3.227            2.0          49.75         -8.547          16.41          81.63           12.3          112.0          81.27          111.4
    0.4889              -11.75          3.225          2.001          49.74         -8.541          16.41          81.61           12.3          112.0          81.28          111.4
    0.5238              -11.76          3.224          2.003          49.74         -8.534           16.4          81.59          12.29          111.9          81.29          111.4
    0.5587              -11.78          3.223          2.005          49.74         -8.527          16.39          81.56          12.29          111.9           81.3          111.4
    0.5937              -11.79          3.221          2.007          49.74         -8.519          16.38          81.53          12.28          111.8          81.32          111.4
    0.6286              -11.81          3.219           2.01          49.73          -8.51          16.37          81.51          12.28          111.8          81.33          111.4
    0.6635              -11.83          3.217          2.012          49.73         -8.501          16.36          81.47          12.27          111.7          81.34          111.5
    0.6984              -11.85          3.215          2.015          49.73          -8.49          16.35          81.44          12.26          111.7          81.36          111.5
    0.7334              -11.87          3.213          2.018          49.72         -8.479          16.33           81.4          12.25          111.6          81.38          111.5
    0.7683               -11.9           3.21          2.022          49.72         -8.466          16.32          81.36          12.24          111.6           81.4          111.5
    0.8032              -11.93          3.207          2.025          49.71         -8.452           16.3          81.31          12.23          111.5          81.42          111.5
    0.8381              -11.96          3.204           2.03          49.71         -8.436          16.28          81.26          12.22          111.4          81.44          111.6
     0.873              -11.99          3.201          2.034           49.7         -8.419          16.26           81.2          12.21          111.3          81.47          111.6
     0.908              -12.03          3.197           2.04           49.7           -8.4          16.24          81.14           12.2          111.2           81.5          111.6
    0.9429              -12.08          3.192          2.046          49.69         -8.378          16.21          81.07          12.18          111.1          81.53          111.7
    0.9778              -12.13          3.187          2.052          49.68         -8.353          16.19          80.99          12.16          111.0          81.57          111.7
     1.013              -12.18          3.182           2.06          49.67         -8.325          16.15          80.89          12.14          110.8          81.61          111.8
     1.048              -12.25          3.175          2.069          49.66         -8.293          16.11          80.79          12.12          110.6          81.66          111.8
     1.083              -12.32          3.168          2.079          49.65         -8.256          16.07          80.66          12.09          110.4          81.72          111.9
     1.117              -12.41          3.159           2.09          49.63         -8.213          16.02          80.52          12.06          110.2          81.78          112.0
     1.152              -12.51          3.149          2.104          49.61         -8.164          15.96          80.36          12.03          110.0          81.86          112.1
     1.187              -12.63          3.137          2.119          49.59         -8.106           15.9          80.17          11.98          109.6          81.95          112.2
     1.222              -12.76          3.123          2.138          49.57         -8.038          15.82          79.94          11.94          109.3          82.05          112.3
     1.257              -12.93          3.107           2.16          49.54         -7.957          15.72          79.67          11.88          108.9          82.18          112.5
     1.292              -13.12          3.087          2.186          49.51          -7.86          15.61          79.35          11.81          108.3          82.33          112.6
